# xmcd
#
# Track frame offsets:
#	150
#	19931
#	33531
#	52051
#	64768
#	87555
#	101857
#	116799
#	133238
#	149415
#	166109
#	184678
#
# Disc length: 2619 seconds
#
# Revision: 0
# Processed by: cddbd v1.5.1PL0 Copyright (c) Steve Scherf et al.
# Submitted via: dBpowerAMP V4.0
#
DISCID=b50a390c
DTITLE=Jimmy Lafave - Blue Nightfall
DYEAR=2005
DGENRE=Blues
TTITLE0=Revival
TTITLE1=Sweet Sweet Love
TTITLE2=River Road
TTITLE3=Music From The Motor Court
TTITLE4=Blue Nightfall
TTITLE5=Shining On Through
TTITLE6=Rain Falling Down
TTITLE7=Bohemian Cowboy Blues
TTITLE8=It's Gone
TTITLE9=I Wish For You
TTITLE10=When You Were Mine
TTITLE11=Gotta Ramble
EXTD=
EXTT0=
EXTT1=
EXTT2=
EXTT3=
EXTT4=
EXTT5=
EXTT6=
EXTT7=
EXTT8=
EXTT9=
EXTT10=
EXTT11=
PLAYORDER=
